<mxfile host="Electron" agent="Mozilla/5.0 (Windows NT 10.0; Win64; x64) AppleWebKit/537.36 (KHTML, like Gecko) draw.io/27.0.5 Chrome/134.0.6998.205 Electron/35.3.0 Safari/537.36" version="27.0.5" pages="2">
  <diagram name="main" id="PAlQ5KCi60ZyLzQCaE8o">
    <mxGraphModel dx="1042" dy="626" grid="1" gridSize="10" guides="1" tooltips="1" connect="1" arrows="1" fold="1" page="1" pageScale="1" pageWidth="850" pageHeight="1100" math="0" shadow="0">
      <root>
        <mxCell id="0" />
        <mxCell id="1" parent="0" />
        <object label="%name%: %type%" placeholders="1" name="start_name" type="Start" ports_exec_out="[&quot;out&quot;]" ports_data_out="[]" id="XJBxcrHkF3XFgZlLdMPd-1">
          <mxCell style="shape=table;childLayout=tableLayout;startSize=40;collapsible=0;recursiveResize=1;expand=0;fontStyle=1;editable=1;movable=1;resizable=1;rotatable=0;deletable=1;locked=0;connectable=0;allowArrows=0;pointerEvents=0;perimeter=rectanglePerimeter;rounded=1;container=1;dropTarget=0;swimlaneHead=1;swimlaneBody=1;top=1;noLabel=0;autosize=0;resizeHeight=0;spacing=2;metaEdit=1;resizeWidth=0;arcSize=10;" parent="1" vertex="1">
            <mxGeometry x="20" y="260" width="160" height="100" as="geometry" />
          </mxCell>
        </object>
        <mxCell id="XJBxcrHkF3XFgZlLdMPd-2" value="" style="shape=tableRow;horizontal=0;swimlaneHead=0;swimlaneBody=0;top=0;left=0;strokeColor=inherit;bottom=0;right=0;dropTarget=0;fontStyle=0;fillColor=none;points=[[0,0.5],[1,0.5]];startSize=0;collapsible=0;recursiveResize=1;expand=0;rounded=0;allowArrows=0;connectable=0;autosize=1;resizeHeight=1;rotatable=0;" parent="XJBxcrHkF3XFgZlLdMPd-1" vertex="1">
          <mxGeometry y="40" width="160" height="60" as="geometry" />
        </mxCell>
        <mxCell id="XJBxcrHkF3XFgZlLdMPd-3" value="Input" style="swimlane;swimlaneHead=0;swimlaneBody=0;fontStyle=0;strokeColor=inherit;connectable=0;fillColor=none;startSize=40;collapsible=0;recursiveResize=1;expand=0;allowArrows=0;autosize=1;rotatable=0;noLabel=1;overflow=hidden;swimlaneLine=0;editable=0;" parent="XJBxcrHkF3XFgZlLdMPd-2" vertex="1">
          <mxGeometry width="80" height="60" as="geometry">
            <mxRectangle width="80" height="60" as="alternateBounds" />
          </mxGeometry>
        </mxCell>
        <mxCell id="XJBxcrHkF3XFgZlLdMPd-4" value="Output" style="swimlane;swimlaneHead=0;swimlaneBody=0;fontStyle=0;strokeColor=inherit;connectable=0;fillColor=none;startSize=40;collapsible=0;recursiveResize=1;expand=0;allowArrows=0;autosize=1;rotatable=0;noLabel=1;overflow=hidden;swimlaneLine=0;editable=0;" parent="XJBxcrHkF3XFgZlLdMPd-2" vertex="1">
          <mxGeometry x="80" width="80" height="60" as="geometry">
            <mxRectangle width="80" height="60" as="alternateBounds" />
          </mxGeometry>
        </mxCell>
        <object label="out" type="exec" id="XJBxcrHkF3XFgZlLdMPd-5">
          <mxCell style="rounded=0;whiteSpace=wrap;html=1;fillColor=#dae8fc;strokeColor=#6c8ebf;" parent="XJBxcrHkF3XFgZlLdMPd-4" vertex="1">
            <mxGeometry x="10" y="10" width="60" height="40" as="geometry" />
          </mxCell>
        </object>
        <object label="%name%: %type%&#xa;%file%" placeholders="1" name="schedule_name" type="Schedule" file="recursion" id="XJBxcrHkF3XFgZlLdMPd-6">
          <mxCell style="shape=table;childLayout=tableLayout;startSize=40;collapsible=0;recursiveResize=1;expand=0;fontStyle=1;editable=1;movable=1;resizable=1;rotatable=0;deletable=1;locked=0;connectable=0;allowArrows=0;pointerEvents=0;perimeter=rectanglePerimeter;rounded=1;container=1;dropTarget=0;swimlaneHead=1;swimlaneBody=1;top=1;noLabel=0;autosize=0;resizeHeight=0;spacing=2;metaEdit=1;resizeWidth=0;arcSize=10;" parent="1" vertex="1">
            <mxGeometry x="425" y="260" width="160" height="180" as="geometry" />
          </mxCell>
        </object>
        <mxCell id="XJBxcrHkF3XFgZlLdMPd-7" value="" style="shape=tableRow;horizontal=0;swimlaneHead=0;swimlaneBody=0;top=0;left=0;strokeColor=inherit;bottom=0;right=0;dropTarget=0;fontStyle=0;fillColor=none;points=[[0,0.5],[1,0.5]];startSize=0;collapsible=0;recursiveResize=1;expand=0;rounded=0;allowArrows=0;connectable=0;autosize=1;resizeHeight=1;rotatable=0;" parent="XJBxcrHkF3XFgZlLdMPd-6" vertex="1">
          <mxGeometry y="40" width="160" height="140" as="geometry" />
        </mxCell>
        <mxCell id="XJBxcrHkF3XFgZlLdMPd-8" value="Input" style="swimlane;swimlaneHead=0;swimlaneBody=0;fontStyle=0;strokeColor=inherit;connectable=0;fillColor=none;startSize=60;collapsible=0;recursiveResize=1;expand=0;allowArrows=0;autosize=1;rotatable=0;noLabel=1;overflow=hidden;swimlaneLine=0;editable=0;" parent="XJBxcrHkF3XFgZlLdMPd-7" vertex="1">
          <mxGeometry width="80" height="140" as="geometry">
            <mxRectangle width="80" height="140" as="alternateBounds" />
          </mxGeometry>
        </mxCell>
        <object label="out" type="exec" id="XJBxcrHkF3XFgZlLdMPd-9">
          <mxCell style="rounded=0;whiteSpace=wrap;html=1;fillColor=#dae8fc;strokeColor=#6c8ebf;" parent="XJBxcrHkF3XFgZlLdMPd-8" vertex="1">
            <mxGeometry x="10" y="10" width="60" height="40" as="geometry" />
          </mxCell>
        </object>
        <object label="all_places" type="data" id="tqCyT2AFxwHsmUbf2qyE-12">
          <mxCell style="rounded=0;whiteSpace=wrap;html=1;fillColor=#d5e8d4;strokeColor=#82b366;" parent="XJBxcrHkF3XFgZlLdMPd-8" vertex="1">
            <mxGeometry x="10" y="60" width="60" height="40" as="geometry" />
          </mxCell>
        </object>
        <mxCell id="XJBxcrHkF3XFgZlLdMPd-10" value="Output" style="swimlane;swimlaneHead=0;swimlaneBody=0;fontStyle=0;strokeColor=inherit;connectable=0;fillColor=none;startSize=40;collapsible=0;recursiveResize=1;expand=0;allowArrows=0;autosize=1;rotatable=0;noLabel=1;overflow=hidden;swimlaneLine=0;editable=0;" parent="XJBxcrHkF3XFgZlLdMPd-7" vertex="1">
          <mxGeometry x="80" width="80" height="140" as="geometry">
            <mxRectangle width="80" height="140" as="alternateBounds" />
          </mxGeometry>
        </mxCell>
        <object label="in" type="exec" id="XJBxcrHkF3XFgZlLdMPd-11">
          <mxCell style="rounded=0;whiteSpace=wrap;html=1;fillColor=#dae8fc;strokeColor=#6c8ebf;" parent="XJBxcrHkF3XFgZlLdMPd-10" vertex="1">
            <mxGeometry x="10" y="10" width="60" height="40" as="geometry" />
          </mxCell>
        </object>
        <object label="%name%: %type%" placeholders="1" name="end_name" type="End" ports_exec_in="[&quot;in&quot;]" ports_data_in="[]" id="XJBxcrHkF3XFgZlLdMPd-13">
          <mxCell style="shape=table;childLayout=tableLayout;startSize=40;collapsible=0;recursiveResize=1;expand=0;fontStyle=1;editable=1;movable=1;resizable=1;rotatable=0;deletable=1;locked=0;connectable=0;allowArrows=0;pointerEvents=0;perimeter=rectanglePerimeter;rounded=1;container=1;dropTarget=0;swimlaneHead=1;swimlaneBody=1;top=1;noLabel=0;autosize=0;resizeHeight=0;spacing=2;metaEdit=1;resizeWidth=0;arcSize=10;" parent="1" vertex="1">
            <mxGeometry x="635" y="260" width="160" height="100" as="geometry" />
          </mxCell>
        </object>
        <mxCell id="XJBxcrHkF3XFgZlLdMPd-14" value="" style="shape=tableRow;horizontal=0;swimlaneHead=0;swimlaneBody=0;top=0;left=0;strokeColor=inherit;bottom=0;right=0;dropTarget=0;fontStyle=0;fillColor=none;points=[[0,0.5],[1,0.5]];startSize=0;collapsible=0;recursiveResize=1;expand=0;rounded=0;allowArrows=0;connectable=0;autosize=1;resizeHeight=1;rotatable=0;" parent="XJBxcrHkF3XFgZlLdMPd-13" vertex="1">
          <mxGeometry y="40" width="160" height="60" as="geometry" />
        </mxCell>
        <mxCell id="XJBxcrHkF3XFgZlLdMPd-15" value="Input" style="swimlane;swimlaneHead=0;swimlaneBody=0;fontStyle=0;strokeColor=inherit;connectable=0;fillColor=none;startSize=40;collapsible=0;recursiveResize=1;expand=0;allowArrows=0;autosize=1;rotatable=0;noLabel=1;overflow=hidden;swimlaneLine=0;editable=0;" parent="XJBxcrHkF3XFgZlLdMPd-14" vertex="1">
          <mxGeometry width="80" height="60" as="geometry">
            <mxRectangle width="80" height="60" as="alternateBounds" />
          </mxGeometry>
        </mxCell>
        <object label="in" type="exec" id="XJBxcrHkF3XFgZlLdMPd-16">
          <mxCell style="rounded=0;whiteSpace=wrap;html=1;fillColor=#dae8fc;strokeColor=#6c8ebf;" parent="XJBxcrHkF3XFgZlLdMPd-15" vertex="1">
            <mxGeometry x="10" y="10" width="60" height="40" as="geometry" />
          </mxCell>
        </object>
        <mxCell id="XJBxcrHkF3XFgZlLdMPd-17" value="Output" style="swimlane;swimlaneHead=0;swimlaneBody=0;fontStyle=0;strokeColor=inherit;connectable=0;fillColor=none;startSize=40;collapsible=0;recursiveResize=1;expand=0;allowArrows=0;autosize=1;rotatable=0;noLabel=1;overflow=hidden;swimlaneLine=0;editable=0;" parent="XJBxcrHkF3XFgZlLdMPd-14" vertex="1">
          <mxGeometry x="80" width="80" height="60" as="geometry">
            <mxRectangle width="80" height="60" as="alternateBounds" />
          </mxGeometry>
        </mxCell>
        <mxCell id="XJBxcrHkF3XFgZlLdMPd-18" style="edgeStyle=orthogonalEdgeStyle;rounded=0;orthogonalLoop=1;jettySize=auto;html=1;exitX=1;exitY=0.5;exitDx=0;exitDy=0;entryX=0;entryY=0.5;entryDx=0;entryDy=0;" parent="1" source="XJBxcrHkF3XFgZlLdMPd-11" target="XJBxcrHkF3XFgZlLdMPd-16" edge="1">
          <mxGeometry relative="1" as="geometry" />
        </mxCell>
        <object label="%name%: %type%&#xa;%file%&#xa;matches: %n%" placeholders="1" name="match_name" type="Match" file="rules/places.od" n="4" id="tqCyT2AFxwHsmUbf2qyE-1">
          <mxCell style="shape=table;childLayout=tableLayout;startSize=60;collapsible=0;recursiveResize=1;expand=0;fontStyle=1;editable=1;movable=1;resizable=1;rotatable=0;deletable=1;locked=0;connectable=0;allowArrows=0;pointerEvents=0;perimeter=rectanglePerimeter;rounded=1;container=1;dropTarget=0;swimlaneHead=1;swimlaneBody=1;top=1;noLabel=0;autosize=0;resizeHeight=0;spacing=2;metaEdit=1;resizeWidth=0;arcSize=10;" parent="1" vertex="1">
            <mxGeometry x="220" y="240" width="160" height="220" as="geometry" />
          </mxCell>
        </object>
        <mxCell id="tqCyT2AFxwHsmUbf2qyE-2" value="" style="shape=tableRow;horizontal=0;swimlaneHead=0;swimlaneBody=0;top=0;left=0;strokeColor=inherit;bottom=0;right=0;dropTarget=0;fontStyle=0;fillColor=none;points=[[0,0.5],[1,0.5]];startSize=0;collapsible=0;recursiveResize=1;expand=0;rounded=0;allowArrows=0;connectable=0;autosize=1;resizeHeight=1;rotatable=0;" parent="tqCyT2AFxwHsmUbf2qyE-1" vertex="1">
          <mxGeometry y="60" width="160" height="160" as="geometry" />
        </mxCell>
        <mxCell id="tqCyT2AFxwHsmUbf2qyE-3" value="Input" style="swimlane;swimlaneHead=0;swimlaneBody=0;fontStyle=0;strokeColor=inherit;connectable=0;fillColor=none;startSize=60;collapsible=0;recursiveResize=1;expand=0;allowArrows=0;autosize=1;rotatable=0;noLabel=1;overflow=hidden;swimlaneLine=0;editable=0;" parent="tqCyT2AFxwHsmUbf2qyE-2" vertex="1">
          <mxGeometry width="80" height="160" as="geometry">
            <mxRectangle width="80" height="160" as="alternateBounds" />
          </mxGeometry>
        </mxCell>
        <object label="in" type="data" id="tqCyT2AFxwHsmUbf2qyE-4">
          <mxCell style="rounded=0;whiteSpace=wrap;html=1;fillColor=#d5e8d4;strokeColor=#82b366;" parent="tqCyT2AFxwHsmUbf2qyE-3" vertex="1">
            <mxGeometry x="10" y="110" width="60" height="40" as="geometry" />
          </mxCell>
        </object>
        <object label="in" type="exec" id="tqCyT2AFxwHsmUbf2qyE-5">
          <mxCell style="rounded=0;whiteSpace=wrap;html=1;fillColor=#dae8fc;strokeColor=#6c8ebf;" parent="tqCyT2AFxwHsmUbf2qyE-3" vertex="1">
            <mxGeometry x="10" y="10" width="60" height="40" as="geometry" />
          </mxCell>
        </object>
        <mxCell id="tqCyT2AFxwHsmUbf2qyE-6" value="Output" style="swimlane;swimlaneHead=0;swimlaneBody=0;fontStyle=0;strokeColor=inherit;connectable=0;fillColor=none;startSize=40;collapsible=0;recursiveResize=1;expand=0;allowArrows=0;autosize=1;rotatable=0;noLabel=1;overflow=hidden;swimlaneLine=0;editable=0;" parent="tqCyT2AFxwHsmUbf2qyE-2" vertex="1">
          <mxGeometry x="80" width="80" height="160" as="geometry">
            <mxRectangle width="80" height="160" as="alternateBounds" />
          </mxGeometry>
        </mxCell>
        <object label="out" type="data" id="tqCyT2AFxwHsmUbf2qyE-7">
          <mxCell style="rounded=0;whiteSpace=wrap;html=1;fillColor=#d5e8d4;strokeColor=#82b366;" parent="tqCyT2AFxwHsmUbf2qyE-6" vertex="1">
            <mxGeometry x="10" y="110" width="60" height="40" as="geometry" />
          </mxCell>
        </object>
        <object label="success" type="exec" id="tqCyT2AFxwHsmUbf2qyE-8">
          <mxCell style="rounded=0;whiteSpace=wrap;html=1;fillColor=#dae8fc;strokeColor=#6c8ebf;" parent="tqCyT2AFxwHsmUbf2qyE-6" vertex="1">
            <mxGeometry x="10" y="10" width="60" height="40" as="geometry" />
          </mxCell>
        </object>
        <object label="fail" type="exec" id="tqCyT2AFxwHsmUbf2qyE-9">
          <mxCell style="rounded=0;whiteSpace=wrap;html=1;fillColor=#dae8fc;strokeColor=#6c8ebf;" parent="tqCyT2AFxwHsmUbf2qyE-6" vertex="1">
            <mxGeometry x="10" y="60" width="60" height="40" as="geometry" />
          </mxCell>
        </object>
        <mxCell id="tqCyT2AFxwHsmUbf2qyE-10" style="edgeStyle=orthogonalEdgeStyle;rounded=0;orthogonalLoop=1;jettySize=auto;html=1;exitX=1;exitY=0.5;exitDx=0;exitDy=0;entryX=0;entryY=0.5;entryDx=0;entryDy=0;" parent="1" source="XJBxcrHkF3XFgZlLdMPd-5" target="tqCyT2AFxwHsmUbf2qyE-5" edge="1">
          <mxGeometry relative="1" as="geometry" />
        </mxCell>
        <mxCell id="tqCyT2AFxwHsmUbf2qyE-11" style="edgeStyle=orthogonalEdgeStyle;rounded=0;orthogonalLoop=1;jettySize=auto;html=1;exitX=1;exitY=0.5;exitDx=0;exitDy=0;entryX=0;entryY=0.5;entryDx=0;entryDy=0;" parent="1" source="tqCyT2AFxwHsmUbf2qyE-8" target="XJBxcrHkF3XFgZlLdMPd-9" edge="1">
          <mxGeometry relative="1" as="geometry" />
        </mxCell>
        <mxCell id="tqCyT2AFxwHsmUbf2qyE-13" style="edgeStyle=orthogonalEdgeStyle;rounded=0;orthogonalLoop=1;jettySize=auto;html=1;exitX=1;exitY=0.5;exitDx=0;exitDy=0;entryX=0;entryY=0.5;entryDx=0;entryDy=0;" parent="1" source="tqCyT2AFxwHsmUbf2qyE-7" target="tqCyT2AFxwHsmUbf2qyE-12" edge="1">
          <mxGeometry relative="1" as="geometry" />
        </mxCell>
      </root>
    </mxGraphModel>
  </diagram>
  <diagram id="0adWAH9EoXTSZy_ri1wc" name="recursion">
    <mxGraphModel dx="1042" dy="626" grid="1" gridSize="10" guides="1" tooltips="1" connect="1" arrows="1" fold="1" page="1" pageScale="1" pageWidth="850" pageHeight="1100" math="0" shadow="0">
      <root>
        <mxCell id="0" />
        <mxCell id="1" parent="0" />
        <object label="%name%: %type%" placeholders="1" name="start_name" type="Start" ports_exec_out="[&quot;out&quot;]" ports_data_out="[&quot;all_places&quot;, &quot;comb&quot;]" id="Kt-HEspv_mNIOeUF0m9y-1">
          <mxCell style="shape=table;childLayout=tableLayout;startSize=40;collapsible=0;recursiveResize=1;expand=0;fontStyle=1;editable=1;movable=1;resizable=1;rotatable=0;deletable=1;locked=0;connectable=0;allowArrows=0;pointerEvents=0;perimeter=rectanglePerimeter;rounded=1;container=1;dropTarget=0;swimlaneHead=1;swimlaneBody=1;top=1;noLabel=0;autosize=0;resizeHeight=0;spacing=2;metaEdit=1;resizeWidth=0;arcSize=10;" parent="1" vertex="1">
            <mxGeometry x="10" y="260" width="160" height="200" as="geometry" />
          </mxCell>
        </object>
        <mxCell id="Kt-HEspv_mNIOeUF0m9y-2" value="" style="shape=tableRow;horizontal=0;swimlaneHead=0;swimlaneBody=0;top=0;left=0;strokeColor=inherit;bottom=0;right=0;dropTarget=0;fontStyle=0;fillColor=none;points=[[0,0.5],[1,0.5]];startSize=0;collapsible=0;recursiveResize=1;expand=0;rounded=0;allowArrows=0;connectable=0;autosize=1;resizeHeight=1;rotatable=0;" parent="Kt-HEspv_mNIOeUF0m9y-1" vertex="1">
          <mxGeometry y="40" width="160" height="160" as="geometry" />
        </mxCell>
        <mxCell id="Kt-HEspv_mNIOeUF0m9y-3" value="Input" style="swimlane;swimlaneHead=0;swimlaneBody=0;fontStyle=0;strokeColor=inherit;connectable=0;fillColor=none;startSize=40;collapsible=0;recursiveResize=1;expand=0;allowArrows=0;autosize=1;rotatable=0;noLabel=1;overflow=hidden;swimlaneLine=0;editable=0;" parent="Kt-HEspv_mNIOeUF0m9y-2" vertex="1">
          <mxGeometry width="80" height="160" as="geometry">
            <mxRectangle width="80" height="160" as="alternateBounds" />
          </mxGeometry>
        </mxCell>
        <mxCell id="Kt-HEspv_mNIOeUF0m9y-4" value="Output" style="swimlane;swimlaneHead=0;swimlaneBody=0;fontStyle=0;strokeColor=inherit;connectable=0;fillColor=none;startSize=40;collapsible=0;recursiveResize=1;expand=0;allowArrows=0;autosize=1;rotatable=0;noLabel=1;overflow=hidden;swimlaneLine=0;editable=0;" parent="Kt-HEspv_mNIOeUF0m9y-2" vertex="1">
          <mxGeometry x="80" width="80" height="160" as="geometry">
            <mxRectangle width="80" height="160" as="alternateBounds" />
          </mxGeometry>
        </mxCell>
        <object label="out" type="exec" id="Kt-HEspv_mNIOeUF0m9y-5">
          <mxCell style="rounded=0;whiteSpace=wrap;html=1;fillColor=#dae8fc;strokeColor=#6c8ebf;" parent="Kt-HEspv_mNIOeUF0m9y-4" vertex="1">
            <mxGeometry x="10" y="10" width="60" height="40" as="geometry" />
          </mxCell>
        </object>
        <object label="all_places" type="data" id="UXJI6ZzX8LQdl2j_TMXK-2">
          <mxCell style="rounded=0;whiteSpace=wrap;html=1;fillColor=#d5e8d4;strokeColor=#82b366;" parent="Kt-HEspv_mNIOeUF0m9y-4" vertex="1">
            <mxGeometry x="10" y="60" width="60" height="40" as="geometry" />
          </mxCell>
        </object>
        <object label="comb" type="data" id="UXJI6ZzX8LQdl2j_TMXK-17">
          <mxCell style="rounded=0;whiteSpace=wrap;html=1;fillColor=#d5e8d4;strokeColor=#82b366;" parent="Kt-HEspv_mNIOeUF0m9y-4" vertex="1">
            <mxGeometry x="10" y="110" width="60" height="40" as="geometry" />
          </mxCell>
        </object>
        <object label="%name%: %type%" placeholders="1" name="end_name" type="End" ports_exec_in="[&quot;in&quot;]" ports_data_in="[]" id="Kt-HEspv_mNIOeUF0m9y-6">
          <mxCell style="shape=table;childLayout=tableLayout;startSize=40;collapsible=0;recursiveResize=1;expand=0;fontStyle=1;editable=1;movable=1;resizable=1;rotatable=0;deletable=1;locked=0;connectable=0;allowArrows=0;pointerEvents=0;perimeter=rectanglePerimeter;rounded=1;container=1;dropTarget=0;swimlaneHead=1;swimlaneBody=1;top=1;noLabel=0;autosize=0;resizeHeight=0;spacing=2;metaEdit=1;resizeWidth=0;arcSize=10;" parent="1" vertex="1">
            <mxGeometry x="540" y="550" width="160" height="150" as="geometry" />
          </mxCell>
        </object>
        <mxCell id="Kt-HEspv_mNIOeUF0m9y-7" value="" style="shape=tableRow;horizontal=0;swimlaneHead=0;swimlaneBody=0;top=0;left=0;strokeColor=inherit;bottom=0;right=0;dropTarget=0;fontStyle=0;fillColor=none;points=[[0,0.5],[1,0.5]];startSize=0;collapsible=0;recursiveResize=1;expand=0;rounded=0;allowArrows=0;connectable=0;autosize=1;resizeHeight=1;rotatable=0;" parent="Kt-HEspv_mNIOeUF0m9y-6" vertex="1">
          <mxGeometry y="40" width="160" height="110" as="geometry" />
        </mxCell>
        <mxCell id="Kt-HEspv_mNIOeUF0m9y-8" value="Input" style="swimlane;swimlaneHead=0;swimlaneBody=0;fontStyle=0;strokeColor=inherit;connectable=0;fillColor=none;startSize=40;collapsible=0;recursiveResize=1;expand=0;allowArrows=0;autosize=1;rotatable=0;noLabel=1;overflow=hidden;swimlaneLine=0;editable=0;" parent="Kt-HEspv_mNIOeUF0m9y-7" vertex="1">
          <mxGeometry width="80" height="110" as="geometry">
            <mxRectangle width="80" height="110" as="alternateBounds" />
          </mxGeometry>
        </mxCell>
        <object label="in" type="exec" id="Kt-HEspv_mNIOeUF0m9y-9">
          <mxCell style="rounded=0;whiteSpace=wrap;html=1;fillColor=#dae8fc;strokeColor=#6c8ebf;" parent="Kt-HEspv_mNIOeUF0m9y-8" vertex="1">
            <mxGeometry x="10" y="10" width="60" height="40" as="geometry" />
          </mxCell>
        </object>
        <mxCell id="Kt-HEspv_mNIOeUF0m9y-10" value="Output" style="swimlane;swimlaneHead=0;swimlaneBody=0;fontStyle=0;strokeColor=inherit;connectable=0;fillColor=none;startSize=40;collapsible=0;recursiveResize=1;expand=0;allowArrows=0;autosize=1;rotatable=0;noLabel=1;overflow=hidden;swimlaneLine=0;editable=0;" parent="Kt-HEspv_mNIOeUF0m9y-7" vertex="1">
          <mxGeometry x="80" width="80" height="110" as="geometry">
            <mxRectangle width="80" height="110" as="alternateBounds" />
          </mxGeometry>
        </mxCell>
        <object label="%name%: %type%&#xa;%file%" placeholders="1" name="schedule_name" type="Schedule" file="recursion" id="UQ9mEoFXoNfb_A1GJxno-1">
          <mxCell style="shape=table;childLayout=tableLayout;startSize=40;collapsible=0;recursiveResize=1;expand=0;fontStyle=1;editable=1;movable=1;resizable=1;rotatable=0;deletable=1;locked=0;connectable=0;allowArrows=0;pointerEvents=0;perimeter=rectanglePerimeter;rounded=1;container=1;dropTarget=0;swimlaneHead=1;swimlaneBody=1;top=1;noLabel=0;autosize=0;resizeHeight=0;spacing=2;metaEdit=1;resizeWidth=0;arcSize=10;" parent="1" vertex="1">
            <mxGeometry x="960" y="260" width="160" height="200" as="geometry" />
          </mxCell>
        </object>
        <mxCell id="UQ9mEoFXoNfb_A1GJxno-2" value="" style="shape=tableRow;horizontal=0;swimlaneHead=0;swimlaneBody=0;top=0;left=0;strokeColor=inherit;bottom=0;right=0;dropTarget=0;fontStyle=0;fillColor=none;points=[[0,0.5],[1,0.5]];startSize=0;collapsible=0;recursiveResize=1;expand=0;rounded=0;allowArrows=0;connectable=0;autosize=1;resizeHeight=1;rotatable=0;" parent="UQ9mEoFXoNfb_A1GJxno-1" vertex="1">
          <mxGeometry y="40" width="160" height="160" as="geometry" />
        </mxCell>
        <mxCell id="UQ9mEoFXoNfb_A1GJxno-3" value="Input" style="swimlane;swimlaneHead=0;swimlaneBody=0;fontStyle=0;strokeColor=inherit;connectable=0;fillColor=none;startSize=60;collapsible=0;recursiveResize=1;expand=0;allowArrows=0;autosize=1;rotatable=0;noLabel=1;overflow=hidden;swimlaneLine=0;editable=0;" parent="UQ9mEoFXoNfb_A1GJxno-2" vertex="1">
          <mxGeometry width="80" height="160" as="geometry">
            <mxRectangle width="80" height="160" as="alternateBounds" />
          </mxGeometry>
        </mxCell>
        <object label="out" type="exec" id="UQ9mEoFXoNfb_A1GJxno-4">
          <mxCell style="rounded=0;whiteSpace=wrap;html=1;fillColor=#dae8fc;strokeColor=#6c8ebf;" parent="UQ9mEoFXoNfb_A1GJxno-3" vertex="1">
            <mxGeometry x="10" y="10" width="60" height="40" as="geometry" />
          </mxCell>
        </object>
        <object label="all_places" type="data" id="UXJI6ZzX8LQdl2j_TMXK-3">
          <mxCell style="rounded=0;whiteSpace=wrap;html=1;fillColor=#d5e8d4;strokeColor=#82b366;" parent="UQ9mEoFXoNfb_A1GJxno-3" vertex="1">
            <mxGeometry x="10" y="60" width="60" height="40" as="geometry" />
          </mxCell>
        </object>
        <object label="comb" type="data" id="UXJI6ZzX8LQdl2j_TMXK-50">
          <mxCell style="rounded=0;whiteSpace=wrap;html=1;fillColor=#d5e8d4;strokeColor=#82b366;" parent="UQ9mEoFXoNfb_A1GJxno-3" vertex="1">
            <mxGeometry x="10" y="110" width="60" height="40" as="geometry" />
          </mxCell>
        </object>
        <mxCell id="UQ9mEoFXoNfb_A1GJxno-5" value="Output" style="swimlane;swimlaneHead=0;swimlaneBody=0;fontStyle=0;strokeColor=inherit;connectable=0;fillColor=none;startSize=40;collapsible=0;recursiveResize=1;expand=0;allowArrows=0;autosize=1;rotatable=0;noLabel=1;overflow=hidden;swimlaneLine=0;editable=0;" parent="UQ9mEoFXoNfb_A1GJxno-2" vertex="1">
          <mxGeometry x="80" width="80" height="160" as="geometry">
            <mxRectangle width="80" height="160" as="alternateBounds" />
          </mxGeometry>
        </mxCell>
        <object label="in" type="exec" id="UQ9mEoFXoNfb_A1GJxno-6">
          <mxCell style="rounded=0;whiteSpace=wrap;html=1;fillColor=#dae8fc;strokeColor=#6c8ebf;" parent="UQ9mEoFXoNfb_A1GJxno-5" vertex="1">
            <mxGeometry x="10" y="10" width="60" height="40" as="geometry" />
          </mxCell>
        </object>
        <object label="%name%: %type%" placeholders="1" name="action_name" type="Action" ports_exec_in="[&quot;in&quot;]" ports_exec_out="[&quot;out&quot;, &quot;stop&quot;]" ports_data_in="[&quot;all_places&quot;, &quot;comb&quot;]" ports_data_out="[]" action="if len(data_in[&quot;all_places&quot;]) == len(data_in[&quot;comb&quot;]):&#xa;  var[&quot;output_gate&quot;] = &quot;stop&quot;" init="" id="v4SniQMLU1hr-XtfmYLd-9">
          <mxCell style="shape=table;childLayout=tableLayout;startSize=40;collapsible=0;recursiveResize=1;expand=0;fontStyle=1;editable=1;movable=1;resizable=1;rotatable=0;deletable=1;locked=0;connectable=0;allowArrows=0;pointerEvents=0;perimeter=rectanglePerimeter;rounded=1;container=1;dropTarget=0;swimlaneHead=1;swimlaneBody=1;top=1;noLabel=0;autosize=0;resizeHeight=0;spacing=2;metaEdit=1;resizeWidth=0;arcSize=10;" parent="1" vertex="1">
            <mxGeometry x="200" y="260" width="160" height="200" as="geometry" />
          </mxCell>
        </object>
        <mxCell id="v4SniQMLU1hr-XtfmYLd-10" value="" style="shape=tableRow;horizontal=0;swimlaneHead=0;swimlaneBody=0;top=0;left=0;strokeColor=inherit;bottom=0;right=0;dropTarget=0;fontStyle=0;fillColor=none;points=[[0,0.5],[1,0.5]];startSize=0;collapsible=0;recursiveResize=1;expand=0;rounded=0;allowArrows=0;connectable=0;autosize=1;resizeHeight=1;rotatable=0;" parent="v4SniQMLU1hr-XtfmYLd-9" vertex="1">
          <mxGeometry y="40" width="160" height="160" as="geometry" />
        </mxCell>
        <mxCell id="v4SniQMLU1hr-XtfmYLd-11" value="Input" style="swimlane;swimlaneHead=0;swimlaneBody=0;fontStyle=0;strokeColor=inherit;connectable=0;fillColor=none;startSize=60;collapsible=0;recursiveResize=1;expand=0;allowArrows=0;autosize=1;rotatable=0;noLabel=1;overflow=hidden;swimlaneLine=0;editable=0;" parent="v4SniQMLU1hr-XtfmYLd-10" vertex="1">
          <mxGeometry width="80" height="160" as="geometry">
            <mxRectangle width="80" height="160" as="alternateBounds" />
          </mxGeometry>
        </mxCell>
        <object label="in" type="exec" id="v4SniQMLU1hr-XtfmYLd-12">
          <mxCell style="rounded=0;whiteSpace=wrap;html=1;fillColor=#dae8fc;strokeColor=#6c8ebf;" parent="v4SniQMLU1hr-XtfmYLd-11" vertex="1">
            <mxGeometry x="10" y="10" width="60" height="40" as="geometry" />
          </mxCell>
        </object>
        <object label="all_places" type="data" id="UXJI6ZzX8LQdl2j_TMXK-4">
          <mxCell style="rounded=0;whiteSpace=wrap;html=1;fillColor=#d5e8d4;strokeColor=#82b366;" parent="v4SniQMLU1hr-XtfmYLd-11" vertex="1">
            <mxGeometry x="10" y="60" width="60" height="40" as="geometry" />
          </mxCell>
        </object>
        <object label="comb" type="data" id="UXJI6ZzX8LQdl2j_TMXK-31">
          <mxCell style="rounded=0;whiteSpace=wrap;html=1;fillColor=#d5e8d4;strokeColor=#82b366;" parent="v4SniQMLU1hr-XtfmYLd-11" vertex="1">
            <mxGeometry x="10" y="110" width="60" height="40" as="geometry" />
          </mxCell>
        </object>
        <mxCell id="v4SniQMLU1hr-XtfmYLd-13" value="Output" style="swimlane;swimlaneHead=0;swimlaneBody=0;fontStyle=0;strokeColor=inherit;connectable=0;fillColor=none;startSize=40;collapsible=0;recursiveResize=1;expand=0;allowArrows=0;autosize=1;rotatable=0;noLabel=1;overflow=hidden;swimlaneLine=0;editable=0;" parent="v4SniQMLU1hr-XtfmYLd-10" vertex="1">
          <mxGeometry x="80" width="80" height="160" as="geometry">
            <mxRectangle width="80" height="160" as="alternateBounds" />
          </mxGeometry>
        </mxCell>
        <object label="out" type="exec" id="v4SniQMLU1hr-XtfmYLd-14">
          <mxCell style="rounded=0;whiteSpace=wrap;html=1;fillColor=#dae8fc;strokeColor=#6c8ebf;" parent="v4SniQMLU1hr-XtfmYLd-13" vertex="1">
            <mxGeometry x="10" y="10" width="60" height="40" as="geometry" />
          </mxCell>
        </object>
        <object label="stop" type="exec" id="3555_PH_8KkFF3nkISFi-1">
          <mxCell style="rounded=0;whiteSpace=wrap;html=1;fillColor=#dae8fc;strokeColor=#6c8ebf;" parent="v4SniQMLU1hr-XtfmYLd-13" vertex="1">
            <mxGeometry x="10" y="60" width="60" height="40" as="geometry" />
          </mxCell>
        </object>
        <object label="%name%: %type%" placeholders="1" name="store_name" type="Store" ports="[&quot;input1&quot;, &quot;input2&quot;]" id="UXJI6ZzX8LQdl2j_TMXK-7">
          <mxCell style="shape=table;childLayout=tableLayout;startSize=40;collapsible=0;recursiveResize=1;expand=0;fontStyle=1;editable=1;movable=1;resizable=1;rotatable=0;deletable=1;locked=0;connectable=0;allowArrows=0;pointerEvents=0;perimeter=rectanglePerimeter;rounded=1;container=1;dropTarget=0;swimlaneHead=1;swimlaneBody=1;top=1;noLabel=0;autosize=0;resizeHeight=0;spacing=2;metaEdit=1;resizeWidth=0;arcSize=10;" parent="1" vertex="1">
            <mxGeometry x="710" y="260" width="160" height="380" as="geometry" />
          </mxCell>
        </object>
        <mxCell id="UXJI6ZzX8LQdl2j_TMXK-8" value="" style="shape=tableRow;horizontal=0;swimlaneHead=0;swimlaneBody=0;top=0;left=0;strokeColor=inherit;bottom=0;right=0;dropTarget=0;fontStyle=0;fillColor=none;points=[[0,0.5],[1,0.5]];startSize=0;collapsible=0;recursiveResize=1;expand=0;rounded=0;allowArrows=0;connectable=0;autosize=1;resizeHeight=1;rotatable=0;" parent="UXJI6ZzX8LQdl2j_TMXK-7" vertex="1">
          <mxGeometry y="40" width="160" height="340" as="geometry" />
        </mxCell>
        <mxCell id="UXJI6ZzX8LQdl2j_TMXK-9" value="Input" style="swimlane;swimlaneHead=0;swimlaneBody=0;fontStyle=0;strokeColor=inherit;connectable=0;fillColor=none;startSize=60;collapsible=0;recursiveResize=1;expand=0;allowArrows=0;autosize=1;rotatable=0;noLabel=1;overflow=hidden;swimlaneLine=0;editable=0;" parent="UXJI6ZzX8LQdl2j_TMXK-8" vertex="1">
          <mxGeometry width="80" height="340" as="geometry">
            <mxRectangle width="80" height="340" as="alternateBounds" />
          </mxGeometry>
        </mxCell>
        <object label="in" type="exec" id="UXJI6ZzX8LQdl2j_TMXK-10">
          <mxCell style="rounded=0;whiteSpace=wrap;html=1;fillColor=#dae8fc;strokeColor=#6c8ebf;" parent="UXJI6ZzX8LQdl2j_TMXK-9" vertex="1">
            <mxGeometry x="10" y="10" width="60" height="40" as="geometry" />
          </mxCell>
        </object>
        <object label="input1" type="exec" id="UXJI6ZzX8LQdl2j_TMXK-11">
          <mxCell style="rounded=0;whiteSpace=wrap;html=1;fillColor=#dae8fc;strokeColor=#6c8ebf;" parent="UXJI6ZzX8LQdl2j_TMXK-9" vertex="1">
            <mxGeometry x="10" y="60" width="60" height="40" as="geometry" />
          </mxCell>
        </object>
        <object label="input1" type="data" id="UXJI6ZzX8LQdl2j_TMXK-12">
          <mxCell style="rounded=0;whiteSpace=wrap;html=1;fillColor=#d5e8d4;strokeColor=#82b366;" parent="UXJI6ZzX8LQdl2j_TMXK-9" vertex="1">
            <mxGeometry x="10" y="110" width="60" height="40" as="geometry" />
          </mxCell>
        </object>
        <object label="input2" type="exec" id="UXJI6ZzX8LQdl2j_TMXK-42">
          <mxCell style="rounded=0;whiteSpace=wrap;html=1;fillColor=#dae8fc;strokeColor=#6c8ebf;" parent="UXJI6ZzX8LQdl2j_TMXK-9" vertex="1">
            <mxGeometry x="10" y="160" width="60" height="40" as="geometry" />
          </mxCell>
        </object>
        <object label="input2" type="data" id="UXJI6ZzX8LQdl2j_TMXK-43">
          <mxCell style="rounded=0;whiteSpace=wrap;html=1;fillColor=#d5e8d4;strokeColor=#82b366;" parent="UXJI6ZzX8LQdl2j_TMXK-9" vertex="1">
            <mxGeometry x="10" y="210" width="60" height="40" as="geometry" />
          </mxCell>
        </object>
        <mxCell id="UXJI6ZzX8LQdl2j_TMXK-13" value="Output" style="swimlane;swimlaneHead=0;swimlaneBody=0;fontStyle=0;strokeColor=inherit;connectable=0;fillColor=none;startSize=40;collapsible=0;recursiveResize=1;expand=0;allowArrows=0;autosize=1;rotatable=0;noLabel=1;overflow=hidden;swimlaneLine=0;editable=0;" parent="UXJI6ZzX8LQdl2j_TMXK-8" vertex="1">
          <mxGeometry x="80" width="80" height="340" as="geometry">
            <mxRectangle width="80" height="340" as="alternateBounds" />
          </mxGeometry>
        </mxCell>
        <object label="out" type="data" id="UXJI6ZzX8LQdl2j_TMXK-14">
          <mxCell style="rounded=0;whiteSpace=wrap;html=1;fillColor=#d5e8d4;strokeColor=#82b366;" parent="UXJI6ZzX8LQdl2j_TMXK-13" vertex="1">
            <mxGeometry x="10" y="110" width="60" height="40" as="geometry" />
          </mxCell>
        </object>
        <object label="out" type="exec" id="UXJI6ZzX8LQdl2j_TMXK-15">
          <mxCell style="rounded=0;whiteSpace=wrap;html=1;fillColor=#dae8fc;strokeColor=#6c8ebf;" parent="UXJI6ZzX8LQdl2j_TMXK-13" vertex="1">
            <mxGeometry x="10" y="10" width="60" height="40" as="geometry" />
          </mxCell>
        </object>
        <object label="input1" type="exec" id="UXJI6ZzX8LQdl2j_TMXK-16">
          <mxCell style="rounded=0;whiteSpace=wrap;html=1;fillColor=#dae8fc;strokeColor=#6c8ebf;" parent="UXJI6ZzX8LQdl2j_TMXK-13" vertex="1">
            <mxGeometry x="10" y="60" width="60" height="40" as="geometry" />
          </mxCell>
        </object>
        <object label="input2" type="exec" id="UXJI6ZzX8LQdl2j_TMXK-44">
          <mxCell style="rounded=0;whiteSpace=wrap;html=1;fillColor=#dae8fc;strokeColor=#6c8ebf;" parent="UXJI6ZzX8LQdl2j_TMXK-13" vertex="1">
            <mxGeometry x="10" y="160" width="60" height="40" as="geometry" />
          </mxCell>
        </object>
        <mxCell id="UXJI6ZzX8LQdl2j_TMXK-46" style="edgeStyle=orthogonalEdgeStyle;rounded=0;orthogonalLoop=1;jettySize=auto;html=1;exitX=1;exitY=0.5;exitDx=0;exitDy=0;entryX=0;entryY=0.5;entryDx=0;entryDy=0;" parent="UXJI6ZzX8LQdl2j_TMXK-8" source="UXJI6ZzX8LQdl2j_TMXK-44" target="UXJI6ZzX8LQdl2j_TMXK-10" edge="1">
          <mxGeometry relative="1" as="geometry">
            <Array as="points">
              <mxPoint x="190" y="180" />
              <mxPoint x="190" y="-60" />
              <mxPoint x="-10" y="-60" />
              <mxPoint x="-10" y="30" />
            </Array>
          </mxGeometry>
        </mxCell>
        <mxCell id="vNqiF5lz3jAjMHvjg_tr-2" style="edgeStyle=orthogonalEdgeStyle;rounded=0;orthogonalLoop=1;jettySize=auto;html=1;exitX=1;exitY=0.5;exitDx=0;exitDy=0;entryX=0.5;entryY=0;entryDx=0;entryDy=0;" parent="UXJI6ZzX8LQdl2j_TMXK-8" source="UXJI6ZzX8LQdl2j_TMXK-16" target="UXJI6ZzX8LQdl2j_TMXK-42" edge="1">
          <mxGeometry relative="1" as="geometry">
            <Array as="points">
              <mxPoint x="170" y="80" />
              <mxPoint x="170" y="110" />
              <mxPoint x="40" y="110" />
            </Array>
          </mxGeometry>
        </mxCell>
        <object label="%name%: %type%" placeholders="1" name="loop_name" type="Loop" id="UXJI6ZzX8LQdl2j_TMXK-22">
          <mxCell style="shape=table;childLayout=tableLayout;startSize=40;collapsible=0;recursiveResize=1;expand=0;fontStyle=1;editable=1;movable=1;resizable=1;rotatable=0;deletable=1;locked=0;connectable=0;allowArrows=0;pointerEvents=0;perimeter=rectanglePerimeter;rounded=1;container=1;dropTarget=0;swimlaneHead=1;swimlaneBody=1;top=1;noLabel=0;autosize=0;resizeHeight=0;spacing=2;metaEdit=1;resizeWidth=0;arcSize=10;" parent="1" vertex="1">
            <mxGeometry x="430" y="260" width="160" height="200" as="geometry" />
          </mxCell>
        </object>
        <mxCell id="UXJI6ZzX8LQdl2j_TMXK-23" value="" style="shape=tableRow;horizontal=0;swimlaneHead=0;swimlaneBody=0;top=0;left=0;strokeColor=inherit;bottom=0;right=0;dropTarget=0;fontStyle=0;fillColor=none;points=[[0,0.5],[1,0.5]];startSize=0;collapsible=0;recursiveResize=1;expand=0;rounded=0;allowArrows=0;connectable=0;autosize=1;resizeHeight=1;rotatable=0;" parent="UXJI6ZzX8LQdl2j_TMXK-22" vertex="1">
          <mxGeometry y="40" width="160" height="160" as="geometry" />
        </mxCell>
        <mxCell id="UXJI6ZzX8LQdl2j_TMXK-24" value="Input" style="swimlane;swimlaneHead=0;swimlaneBody=0;fontStyle=0;strokeColor=inherit;connectable=0;fillColor=none;startSize=60;collapsible=0;recursiveResize=1;expand=0;allowArrows=0;autosize=1;rotatable=0;noLabel=1;overflow=hidden;swimlaneLine=0;editable=0;" parent="UXJI6ZzX8LQdl2j_TMXK-23" vertex="1">
          <mxGeometry width="80" height="160" as="geometry">
            <mxRectangle width="80" height="160" as="alternateBounds" />
          </mxGeometry>
        </mxCell>
        <object label="in" type="data" id="UXJI6ZzX8LQdl2j_TMXK-25">
          <mxCell style="rounded=0;whiteSpace=wrap;html=1;fillColor=#d5e8d4;strokeColor=#82b366;" parent="UXJI6ZzX8LQdl2j_TMXK-24" vertex="1">
            <mxGeometry x="10" y="110" width="60" height="40" as="geometry" />
          </mxCell>
        </object>
        <object label="in" type="exec" id="UXJI6ZzX8LQdl2j_TMXK-26">
          <mxCell style="rounded=0;whiteSpace=wrap;html=1;fillColor=#dae8fc;strokeColor=#6c8ebf;" parent="UXJI6ZzX8LQdl2j_TMXK-24" vertex="1">
            <mxGeometry x="10" y="10" width="60" height="40" as="geometry" />
          </mxCell>
        </object>
        <mxCell id="UXJI6ZzX8LQdl2j_TMXK-27" value="Output" style="swimlane;swimlaneHead=0;swimlaneBody=0;fontStyle=0;strokeColor=inherit;connectable=0;fillColor=none;startSize=40;collapsible=0;recursiveResize=1;expand=0;allowArrows=0;autosize=1;rotatable=0;noLabel=1;overflow=hidden;swimlaneLine=0;editable=0;" parent="UXJI6ZzX8LQdl2j_TMXK-23" vertex="1">
          <mxGeometry x="80" width="80" height="160" as="geometry">
            <mxRectangle width="80" height="160" as="alternateBounds" />
          </mxGeometry>
        </mxCell>
        <object label="out" type="data" id="UXJI6ZzX8LQdl2j_TMXK-28">
          <mxCell style="rounded=0;whiteSpace=wrap;html=1;fillColor=#d5e8d4;strokeColor=#82b366;" parent="UXJI6ZzX8LQdl2j_TMXK-27" vertex="1">
            <mxGeometry x="10" y="110" width="60" height="40" as="geometry" />
          </mxCell>
        </object>
        <object label="it" type="exec" id="UXJI6ZzX8LQdl2j_TMXK-29">
          <mxCell style="rounded=0;whiteSpace=wrap;html=1;fillColor=#dae8fc;strokeColor=#6c8ebf;" parent="UXJI6ZzX8LQdl2j_TMXK-27" vertex="1">
            <mxGeometry x="10" y="10" width="60" height="40" as="geometry" />
          </mxCell>
        </object>
        <object label="out" type="exec" id="UXJI6ZzX8LQdl2j_TMXK-30">
          <mxCell style="rounded=0;whiteSpace=wrap;html=1;fillColor=#dae8fc;strokeColor=#6c8ebf;" parent="UXJI6ZzX8LQdl2j_TMXK-27" vertex="1">
            <mxGeometry x="10" y="60" width="60" height="40" as="geometry" />
          </mxCell>
        </object>
        <mxCell id="UXJI6ZzX8LQdl2j_TMXK-32" style="edgeStyle=orthogonalEdgeStyle;rounded=0;orthogonalLoop=1;jettySize=auto;html=1;exitX=1;exitY=0.5;exitDx=0;exitDy=0;entryX=0;entryY=0.5;entryDx=0;entryDy=0;" parent="1" source="UXJI6ZzX8LQdl2j_TMXK-17" target="UXJI6ZzX8LQdl2j_TMXK-31" edge="1">
          <mxGeometry relative="1" as="geometry" />
        </mxCell>
        <mxCell id="UXJI6ZzX8LQdl2j_TMXK-33" style="edgeStyle=orthogonalEdgeStyle;rounded=0;orthogonalLoop=1;jettySize=auto;html=1;exitX=1;exitY=0.5;exitDx=0;exitDy=0;entryX=0;entryY=0.5;entryDx=0;entryDy=0;" parent="1" source="UXJI6ZzX8LQdl2j_TMXK-2" target="UXJI6ZzX8LQdl2j_TMXK-4" edge="1">
          <mxGeometry relative="1" as="geometry" />
        </mxCell>
        <mxCell id="UXJI6ZzX8LQdl2j_TMXK-34" style="edgeStyle=orthogonalEdgeStyle;rounded=0;orthogonalLoop=1;jettySize=auto;html=1;exitX=1;exitY=0.5;exitDx=0;exitDy=0;entryX=0;entryY=0.5;entryDx=0;entryDy=0;" parent="1" source="Kt-HEspv_mNIOeUF0m9y-5" target="v4SniQMLU1hr-XtfmYLd-12" edge="1">
          <mxGeometry relative="1" as="geometry" />
        </mxCell>
        <mxCell id="UXJI6ZzX8LQdl2j_TMXK-37" style="edgeStyle=orthogonalEdgeStyle;rounded=0;orthogonalLoop=1;jettySize=auto;html=1;exitX=1;exitY=0.5;exitDx=0;exitDy=0;entryX=0;entryY=0.5;entryDx=0;entryDy=0;" parent="1" source="UXJI6ZzX8LQdl2j_TMXK-2" target="UXJI6ZzX8LQdl2j_TMXK-25" edge="1">
          <mxGeometry relative="1" as="geometry">
            <Array as="points">
              <mxPoint x="190" y="380" />
              <mxPoint x="190" y="490" />
              <mxPoint x="400" y="490" />
              <mxPoint x="400" y="430" />
            </Array>
          </mxGeometry>
        </mxCell>
        <mxCell id="UXJI6ZzX8LQdl2j_TMXK-39" style="edgeStyle=orthogonalEdgeStyle;rounded=0;orthogonalLoop=1;jettySize=auto;html=1;exitX=1;exitY=0.5;exitDx=0;exitDy=0;entryX=0;entryY=0.5;entryDx=0;entryDy=0;" parent="1" source="v4SniQMLU1hr-XtfmYLd-14" target="UXJI6ZzX8LQdl2j_TMXK-26" edge="1">
          <mxGeometry relative="1" as="geometry" />
        </mxCell>
        <mxCell id="UXJI6ZzX8LQdl2j_TMXK-41" style="edgeStyle=orthogonalEdgeStyle;rounded=0;orthogonalLoop=1;jettySize=auto;html=1;exitX=1;exitY=0.5;exitDx=0;exitDy=0;entryX=0;entryY=0.5;entryDx=0;entryDy=0;" parent="1" source="UXJI6ZzX8LQdl2j_TMXK-29" target="UXJI6ZzX8LQdl2j_TMXK-11" edge="1">
          <mxGeometry relative="1" as="geometry" />
        </mxCell>
        <mxCell id="UXJI6ZzX8LQdl2j_TMXK-47" style="edgeStyle=orthogonalEdgeStyle;rounded=0;orthogonalLoop=1;jettySize=auto;html=1;exitX=1;exitY=0.5;exitDx=0;exitDy=0;entryX=0;entryY=0.5;entryDx=0;entryDy=0;" parent="1" source="UXJI6ZzX8LQdl2j_TMXK-17" target="UXJI6ZzX8LQdl2j_TMXK-43" edge="1">
          <mxGeometry relative="1" as="geometry">
            <Array as="points">
              <mxPoint x="180" y="430" />
              <mxPoint x="180" y="530" />
            </Array>
          </mxGeometry>
        </mxCell>
        <mxCell id="UXJI6ZzX8LQdl2j_TMXK-48" style="edgeStyle=orthogonalEdgeStyle;rounded=0;orthogonalLoop=1;jettySize=auto;html=1;exitX=1;exitY=0.5;exitDx=0;exitDy=0;entryX=0;entryY=0.5;entryDx=0;entryDy=0;" parent="1" source="UXJI6ZzX8LQdl2j_TMXK-15" target="UQ9mEoFXoNfb_A1GJxno-4" edge="1">
          <mxGeometry relative="1" as="geometry" />
        </mxCell>
        <mxCell id="UXJI6ZzX8LQdl2j_TMXK-51" style="edgeStyle=orthogonalEdgeStyle;rounded=0;orthogonalLoop=1;jettySize=auto;html=1;exitX=1;exitY=0.5;exitDx=0;exitDy=0;entryX=0;entryY=0.5;entryDx=0;entryDy=0;" parent="1" source="UXJI6ZzX8LQdl2j_TMXK-14" target="UXJI6ZzX8LQdl2j_TMXK-50" edge="1">
          <mxGeometry relative="1" as="geometry" />
        </mxCell>
        <mxCell id="UXJI6ZzX8LQdl2j_TMXK-52" style="edgeStyle=orthogonalEdgeStyle;rounded=0;orthogonalLoop=1;jettySize=auto;html=1;exitX=1;exitY=0.5;exitDx=0;exitDy=0;entryX=0;entryY=0.5;entryDx=0;entryDy=0;" parent="1" source="UQ9mEoFXoNfb_A1GJxno-6" target="UXJI6ZzX8LQdl2j_TMXK-26" edge="1">
          <mxGeometry relative="1" as="geometry">
            <Array as="points">
              <mxPoint x="1130" y="330" />
              <mxPoint x="1130" y="190" />
              <mxPoint x="420" y="190" />
              <mxPoint x="420" y="330" />
            </Array>
          </mxGeometry>
        </mxCell>
        <mxCell id="UXJI6ZzX8LQdl2j_TMXK-53" style="edgeStyle=orthogonalEdgeStyle;rounded=0;orthogonalLoop=1;jettySize=auto;html=1;exitX=1;exitY=0.5;exitDx=0;exitDy=0;entryX=0;entryY=0.5;entryDx=0;entryDy=0;" parent="1" source="UXJI6ZzX8LQdl2j_TMXK-2" target="UXJI6ZzX8LQdl2j_TMXK-3" edge="1">
          <mxGeometry relative="1" as="geometry">
            <Array as="points">
              <mxPoint x="190" y="380" />
              <mxPoint x="190" y="730" />
              <mxPoint x="930" y="730" />
              <mxPoint x="930" y="380" />
            </Array>
          </mxGeometry>
        </mxCell>
        <object label="%name%: %type%" placeholders="1" name="print_name" type="Print" event="False" custom="" id="UXJI6ZzX8LQdl2j_TMXK-54">
          <mxCell style="shape=table;childLayout=tableLayout;startSize=40;collapsible=0;recursiveResize=1;expand=0;fontStyle=1;editable=1;movable=1;resizable=1;rotatable=0;deletable=1;locked=0;connectable=0;allowArrows=0;pointerEvents=0;perimeter=rectanglePerimeter;rounded=1;container=1;dropTarget=0;swimlaneHead=1;swimlaneBody=1;top=1;noLabel=0;autosize=0;resizeHeight=0;spacing=2;metaEdit=1;resizeWidth=0;arcSize=10;" parent="1" vertex="1">
            <mxGeometry x="370" y="550" width="160" height="150" as="geometry" />
          </mxCell>
        </object>
        <mxCell id="UXJI6ZzX8LQdl2j_TMXK-55" value="" style="shape=tableRow;horizontal=0;swimlaneHead=0;swimlaneBody=0;top=0;left=0;strokeColor=inherit;bottom=0;right=0;dropTarget=0;fontStyle=0;fillColor=none;points=[[0,0.5],[1,0.5]];startSize=0;collapsible=0;recursiveResize=1;expand=0;rounded=0;allowArrows=0;connectable=0;autosize=1;resizeHeight=1;rotatable=0;" parent="UXJI6ZzX8LQdl2j_TMXK-54" vertex="1">
          <mxGeometry y="40" width="160" height="110" as="geometry" />
        </mxCell>
        <mxCell id="UXJI6ZzX8LQdl2j_TMXK-56" value="Input" style="swimlane;swimlaneHead=0;swimlaneBody=0;fontStyle=0;strokeColor=inherit;connectable=0;fillColor=none;startSize=60;collapsible=0;recursiveResize=1;expand=0;allowArrows=0;autosize=1;rotatable=0;noLabel=1;overflow=hidden;swimlaneLine=0;editable=0;" parent="UXJI6ZzX8LQdl2j_TMXK-55" vertex="1">
          <mxGeometry width="80" height="110" as="geometry">
            <mxRectangle width="80" height="110" as="alternateBounds" />
          </mxGeometry>
        </mxCell>
        <object label="in" type="exec" id="UXJI6ZzX8LQdl2j_TMXK-57">
          <mxCell style="rounded=0;whiteSpace=wrap;html=1;fillColor=#dae8fc;strokeColor=#6c8ebf;" parent="UXJI6ZzX8LQdl2j_TMXK-56" vertex="1">
            <mxGeometry x="10" y="10" width="60" height="40" as="geometry" />
          </mxCell>
        </object>
        <mxCell id="UXJI6ZzX8LQdl2j_TMXK-58" value="Output" style="swimlane;swimlaneHead=0;swimlaneBody=0;fontStyle=0;strokeColor=inherit;connectable=0;fillColor=none;startSize=40;collapsible=0;recursiveResize=1;expand=0;allowArrows=0;autosize=1;rotatable=0;noLabel=1;overflow=hidden;swimlaneLine=0;editable=0;" parent="UXJI6ZzX8LQdl2j_TMXK-55" vertex="1">
          <mxGeometry x="80" width="80" height="110" as="geometry">
            <mxRectangle width="80" height="110" as="alternateBounds" />
          </mxGeometry>
        </mxCell>
        <object label="out" type="exec" id="UXJI6ZzX8LQdl2j_TMXK-59">
          <mxCell style="rounded=0;whiteSpace=wrap;html=1;fillColor=#dae8fc;strokeColor=#6c8ebf;" parent="UXJI6ZzX8LQdl2j_TMXK-58" vertex="1">
            <mxGeometry x="10" y="10" width="60" height="40" as="geometry" />
          </mxCell>
        </object>
        <object label="in" type="data" id="UXJI6ZzX8LQdl2j_TMXK-60">
          <mxCell style="rounded=0;whiteSpace=wrap;html=1;fillColor=#d5e8d4;strokeColor=#82b366;" parent="UXJI6ZzX8LQdl2j_TMXK-58" vertex="1">
            <mxGeometry x="-70" y="60" width="60" height="40" as="geometry" />
          </mxCell>
        </object>
        <mxCell id="UXJI6ZzX8LQdl2j_TMXK-61" style="edgeStyle=orthogonalEdgeStyle;rounded=0;orthogonalLoop=1;jettySize=auto;html=1;exitX=1;exitY=0.5;exitDx=0;exitDy=0;entryX=0;entryY=0.5;entryDx=0;entryDy=0;" parent="1" source="UXJI6ZzX8LQdl2j_TMXK-17" target="UXJI6ZzX8LQdl2j_TMXK-60" edge="1">
          <mxGeometry relative="1" as="geometry">
            <Array as="points">
              <mxPoint x="180" y="430" />
              <mxPoint x="180" y="670" />
            </Array>
          </mxGeometry>
        </mxCell>
        <mxCell id="UXJI6ZzX8LQdl2j_TMXK-63" style="edgeStyle=orthogonalEdgeStyle;rounded=0;orthogonalLoop=1;jettySize=auto;html=1;exitX=0.5;exitY=1;exitDx=0;exitDy=0;entryX=0;entryY=0.5;entryDx=0;entryDy=0;" parent="1" source="3555_PH_8KkFF3nkISFi-1" target="UXJI6ZzX8LQdl2j_TMXK-57" edge="1">
          <mxGeometry relative="1" as="geometry" />
        </mxCell>
        <mxCell id="UXJI6ZzX8LQdl2j_TMXK-64" style="edgeStyle=orthogonalEdgeStyle;rounded=0;orthogonalLoop=1;jettySize=auto;html=1;exitX=1;exitY=0.5;exitDx=0;exitDy=0;entryX=0;entryY=0.5;entryDx=0;entryDy=0;" parent="1" source="UXJI6ZzX8LQdl2j_TMXK-59" target="Kt-HEspv_mNIOeUF0m9y-9" edge="1">
          <mxGeometry relative="1" as="geometry" />
        </mxCell>
        <mxCell id="8zcSqG1YZsmCVL_NL7U9-2" style="edgeStyle=orthogonalEdgeStyle;rounded=0;orthogonalLoop=1;jettySize=auto;html=1;exitX=1;exitY=0.5;exitDx=0;exitDy=0;entryX=0.5;entryY=0;entryDx=0;entryDy=0;" parent="1" source="UXJI6ZzX8LQdl2j_TMXK-30" target="Kt-HEspv_mNIOeUF0m9y-9" edge="1">
          <mxGeometry relative="1" as="geometry" />
        </mxCell>
        <mxCell id="vNqiF5lz3jAjMHvjg_tr-1" style="edgeStyle=orthogonalEdgeStyle;rounded=0;orthogonalLoop=1;jettySize=auto;html=1;exitX=1;exitY=0.5;exitDx=0;exitDy=0;entryX=0;entryY=0.5;entryDx=0;entryDy=0;" parent="1" source="UXJI6ZzX8LQdl2j_TMXK-28" target="UXJI6ZzX8LQdl2j_TMXK-12" edge="1">
          <mxGeometry relative="1" as="geometry" />
        </mxCell>
      </root>
    </mxGraphModel>
  </diagram>
</mxfile>
